<svg width="54" height="31" viewBox="0 0 54 31" fill="none" xmlns="http://www.w3.org/2000/svg">
<path d="M39.367 1.70011C38.457 0.790107 36.987 0.790107 36.077 1.70011L22.917 14.8601L26.207 18.1501L39.367 4.96677C40.2537 4.08011 40.2537 2.58677 39.367 1.70011ZM49.2603 1.67677L26.207 24.7301L18.087 16.6334C17.177 15.7234 15.707 15.7234 14.797 16.6334C13.887 17.5434 13.887 19.0134 14.797 19.9234L24.5503 29.6768C25.4603 30.5868 26.9303 30.5868 27.8403 29.6768L52.5503 4.99011C53.4603 4.08011 53.4603 2.61011 52.5503 1.70011H52.527C51.6403 0.766773 50.1703 0.766773 49.2603 1.67677ZM1.61365 19.9468L11.367 29.7001C12.277 30.6101 13.747 30.6101 14.657 29.7001L16.2903 28.0668L4.90365 16.6334C3.99365 15.7234 2.52365 15.7234 1.61365 16.6334C0.703652 17.5434 0.703652 19.0368 1.61365 19.9468Z" fill="white"/>
</svg>
