<svg width="262" height="349" viewBox="0 0 262 349" fill="none" xmlns="http://www.w3.org/2000/svg">
<path fill-rule="evenodd" clip-rule="evenodd" d="M-29.2157 0.432303C32.8654 -3.14389 95.0775 15.5811 145.196 52.3909C195.147 89.0772 228.394 143.593 246.435 202.884C264.22 261.331 270.059 325.782 245.395 381.675C221.875 434.976 159.958 454.551 117.69 494.647C66.0782 543.608 41.9246 642.32 -29.2157 642.178C-100.396 642.035 -117.44 534.961 -175.695 494.06C-235.627 451.981 -332.541 466.169 -369.741 403.092C-407.521 339.031 -393.018 251.125 -357.503 185.781C-324.381 124.839 -250.015 105.779 -189.615 71.6777C-137.393 42.1932 -89.0875 3.88122 -29.2157 0.432303Z" fill="white" fill-opacity="0.05"/>
</svg>
