<svg width="413" height="327" viewBox="0 0 413 327" fill="none" xmlns="http://www.w3.org/2000/svg">
<path fill-rule="evenodd" clip-rule="evenodd" d="M362.784 -315.568C424.865 -319.144 487.077 -300.419 537.196 -263.609C587.147 -226.923 620.394 -172.407 638.435 -113.116C656.22 -54.669 662.059 9.78162 637.395 65.6749C613.875 118.976 551.958 138.551 509.69 178.647C458.078 227.608 433.925 326.32 362.784 326.178C291.604 326.035 274.56 218.961 216.305 178.06C156.373 135.981 59.4585 150.169 22.2589 87.0919C-15.5213 23.031 -1.01805 -64.8747 34.4969 -130.219C67.6193 -191.161 141.985 -210.221 202.385 -244.322C254.607 -273.807 302.913 -312.119 362.784 -315.568Z" fill="white" fill-opacity="0.05"/>
</svg>
