<svg width="379" height="432" viewBox="0 0 379 432" fill="none" xmlns="http://www.w3.org/2000/svg">
<g style="mix-blend-mode:color-dodge">
<path fill-rule="evenodd" clip-rule="evenodd" d="M165.843 2.52435C206.098 -6.06258 247.201 14.5485 280.909 38.1709C311.959 59.9312 328.857 94.3359 345.48 128.414C362.215 162.724 383.874 197.958 377.181 235.54C370.477 273.183 334.051 295.284 310.408 325.332C281.477 362.101 269.869 425.901 223.365 431.027C176.585 436.183 153.676 372.68 114.269 346.952C79.8345 324.471 26.8973 326.963 8.01628 290.43C-10.8918 253.845 10.2168 209.935 23.2678 170.876C34.6079 136.937 54.7044 108.797 77.83 81.4901C103.942 50.6576 126.328 10.9533 165.843 2.52435Z" fill="#222C38"/>
</g>
</svg>
