<svg width="396" height="438" viewBox="0 0 396 438" fill="none" xmlns="http://www.w3.org/2000/svg">
<path fill-rule="evenodd" clip-rule="evenodd" d="M177.669 4.325C225.49 -10.3598 280.771 14.3282 317.219 48.592C351.979 81.268 351.555 134.044 364.504 179.96C376.806 223.586 408.206 268.053 390.923 309.956C373.735 351.629 319.598 359.638 280.875 382.717C246.64 403.12 217.338 440.897 177.669 437.054C138.35 433.245 117.741 390.077 88.0369 364.034C61.8557 341.08 28.4033 325.575 14.2384 293.768C-0.797951 260.004 -5.88023 219.734 8.63773 185.744C22.6905 152.843 64.6412 144.839 89.0295 118.664C122.728 82.4955 130.413 18.8363 177.669 4.325Z" fill="#222C38"/>
</svg>
