<svg width="465" height="384" viewBox="0 0 465 384" fill="none" xmlns="http://www.w3.org/2000/svg">
<g style="mix-blend-mode:color-dodge">
<path fill-rule="evenodd" clip-rule="evenodd" d="M224.196 4.06629C261.466 10.9598 288.622 38.6978 320.078 59.8443C353.086 82.0344 390.413 97.5456 412.475 130.64C439.969 171.882 478.137 222.395 458.893 268.073C439.375 314.403 373.621 314.438 327.058 333.393C293.128 347.205 260.312 357.483 224.196 363.612C179.679 371.166 129.533 398.905 92.4012 373.215C55.3525 347.582 70.4821 289.107 55.2363 246.714C39.2309 202.208 -7.73559 165.79 1.0959 119.326C10.0256 72.3451 56.0561 40.8196 98.543 18.8696C136.952 -0.973505 181.685 -3.79641 224.196 4.06629Z" fill="#222C38"/>
</g>
</svg>
