<svg width="20" height="20" viewBox="0 0 20 20" fill="none" xmlns="http://www.w3.org/2000/svg">
<path d="M17.5 10C17.5 9.77 17.49 9.55 17.47 9.32L19.33 7.91C19.73 7.61 19.84 7.05 19.59 6.61L17.72 3.38C17.47 2.94 16.93 2.76 16.47 2.96L14.32 3.87C13.95 3.61 13.56 3.38 13.15 3.19L12.86 0.88C12.8 0.38 12.37 0 11.87 0H8.14003C7.63003 0 7.20003 0.38 7.14003 0.88L6.85003 3.19C6.44003 3.38 6.05003 3.61 5.68003 3.87L3.53003 2.96C3.07003 2.76 2.53003 2.94 2.28003 3.38L0.410031 6.62C0.160031 7.06 0.270031 7.61 0.670031 7.92L2.53003 9.33C2.51003 9.55 2.50003 9.77 2.50003 10C2.50003 10.23 2.51003 10.45 2.53003 10.68L0.670031 12.09C0.270031 12.39 0.160031 12.95 0.410031 13.39L2.28003 16.62C2.53003 17.06 3.07003 17.24 3.53003 17.04L5.68003 16.13C6.05003 16.39 6.44003 16.62 6.85003 16.81L7.14003 19.12C7.20003 19.62 7.63003 20 8.13003 20H11.86C12.36 20 12.79 19.62 12.85 19.12L13.14 16.81C13.55 16.62 13.94 16.39 14.31 16.13L16.46 17.04C16.92 17.24 17.46 17.06 17.71 16.62L19.58 13.39C19.83 12.95 19.72 12.4 19.32 12.09L17.46 10.68C17.49 10.45 17.5 10.23 17.5 10ZM10.04 13.5C8.11003 13.5 6.54003 11.93 6.54003 10C6.54003 8.07 8.11003 6.5 10.04 6.5C11.97 6.5 13.54 8.07 13.54 10C13.54 11.93 11.97 13.5 10.04 13.5Z" fill="white"/>
</svg>
