<svg width="23" height="20" viewBox="0 0 23 20" fill="none" xmlns="http://www.w3.org/2000/svg">
<path d="M12.12 0.56003L6.58 6.10003C6.21 6.47003 6 6.98003 6 7.51003V17.5C6 18.6 6.9 19.5 8 19.5H17C17.8 19.5 18.52 19.02 18.84 18.29L22.1 10.68C22.94 8.70003 21.49 6.50003 19.34 6.50003H13.69L14.64 1.92003C14.74 1.42003 14.59 0.91003 14.23 0.55003C13.64 -0.02997 12.7 -0.02997 12.12 0.56003ZM2 19.5C3.1 19.5 4 18.6 4 17.5V9.50003C4 8.40003 3.1 7.50003 2 7.50003C0.9 7.50003 0 8.40003 0 9.50003V17.5C0 18.6 0.9 19.5 2 19.5Z" fill="white"/>
</svg>
